<svg aria-hidden="true" style="position: absolute; width: 0; height: 0; overflow: hidden;" version="1.1" xmlns="http://www.w3.org/2000/svg" xmlns:xlink="http://www.w3.org/1999/xlink">
<defs>
<symbol id="logo" viewBox="0 0 68 32">
<path d="M16.822 0.045c-3.366 0.161-5.462 0.594-7.633 1.574-2.426 1.097-4.777 3.214-6.322 5.684-0.45 0.724-1.105 2.042-1.44 2.892-0.905 2.309-1.355 4.653-1.421 7.318-0.090 4.004 0.815 7.882 2.736 11.714 0.7 1.393 1.511 2.746 1.621 2.706 0.13-0.050 5.832-3.873 5.832-3.908 0-0.025-0.1-0.216-0.23-0.427-0.3-0.513-0.91-1.745-1.185-2.394-0.79-1.866-1.335-4.21-1.335-5.759v-0.322h8.003v8.903h7.303v-20.823h-7.303v5.633h-7.303l0.050-0.121c0.42-1.117 1.2-2.636 1.701-3.325 0.42-0.573 1.26-1.257 2.181-1.776 1.145-0.639 2.246-0.981 3.881-1.197 0.505-0.070 1.27-0.085 4.306-0.106 2.026-0.015 3.686-0.040 3.686-0.055 0.005-0.020-0.375-1.434-0.835-3.144l-0.84-3.103-2.576 0.010c-1.415 0.005-2.711 0.015-2.876 0.025z"></path>
<path d="M25.39 2.52l-0.63 2.52h4.622c5.042 0 4.967-0.005 5.667 0.292 1.781 0.755 2.901 2.937 2.791 5.442-0.11 2.515-1.365 4.683-3.341 5.774-0.805 0.438-1.841 0.729-2.836 0.795l-0.51 0.035v-11.634h-5.402v16.659l3.216-0.025c3.436-0.025 3.646-0.035 5.047-0.312 2.931-0.578 5.447-1.992 7.197-4.034 3.301-3.853 3.586-9.396 0.725-13.938-0.6-0.951-1.466-1.997-2.231-2.696-0.61-0.558-1.641-0.981-3.006-1.247-0.56-0.106-0.68-0.106-5.627-0.126l-5.057-0.020-0.625 2.515z"></path>
<path d="M44.442 3.108c-0.46 1.715-0.84 3.129-0.835 3.149 0 0.015 1.661 0.040 3.691 0.055 3.031 0.020 3.796 0.035 4.301 0.106 1.636 0.216 2.736 0.558 3.881 1.197 0.92 0.518 1.761 1.202 2.181 1.776 0.5 0.689 1.28 2.208 1.701 3.325l0.050 0.121h-7.302v-5.633h-7.303v20.823h7.303v-8.903h8.003v0.322c0 1.549-0.545 3.893-1.336 5.759-0.275 0.649-0.885 1.881-1.185 2.394-0.13 0.211-0.23 0.402-0.23 0.427 0 0.035 5.702 3.858 5.832 3.908 0.11 0.040 0.92-1.313 1.621-2.706 1.921-3.833 2.826-7.711 2.736-11.714-0.075-3.284-0.77-6.182-2.116-8.852-1.080-2.148-2.44-3.838-4.276-5.311-2.116-1.7-4.657-2.711-7.748-3.083-1.551-0.191-2.126-0.216-5.127-0.241l-3.001-0.025-0.84 3.108z"></path>
<path d="M27.801 24.616c-0.345 0.724-0.63 1.544-0.875 2.53-0.095 0.387-0.175 0.719-0.175 0.739 0 0.025 0.245 0.040 0.545 0.040h0.54l0.060-0.317c0.125-0.649 0.575-2.072 0.725-2.273 0.055-0.075 0.085-0.025 0.245 0.382 0.1 0.262 0.195 0.533 0.215 0.609l0.030 0.141h-0.69l-0.085 0.362c-0.050 0.201-0.085 0.382-0.085 0.402 0 0.025 0.245 0.040 0.545 0.040h0.545l0.12 0.654h0.545c0.3 0 0.545-0.015 0.545-0.040 0-0.091-0.265-1.187-0.38-1.594-0.185-0.619-0.53-1.479-0.78-1.921l-0.21-0.367h-1.085l-0.295 0.614z"></path>
<path d="M32.102 25.961v1.967h1.1v-3.083l0.32 0.025c0.62 0.050 0.97 0.397 1.015 1.016 0.035 0.397-0.080 0.815-0.27 0.996-0.17 0.166-0.46 0.292-0.665 0.292h-0.15v0.855h0.19c0.1 0 0.33-0.035 0.505-0.075 0.98-0.231 1.506-0.925 1.506-1.977 0-0.755-0.21-1.212-0.72-1.554-0.445-0.302-0.79-0.377-1.866-0.407l-0.965-0.020v1.967z"></path>
<path d="M37.129 24.213c0.115 0.679 0.57 1.977 1.075 3.048l0.315 0.669 0.86-0.030 0.285-0.568c0.33-0.674 0.635-1.444 0.845-2.148 0.13-0.433 0.295-1.091 0.295-1.162 0-0.010-0.255-0.020-0.565-0.020h-0.565l-0.090 0.438c-0.105 0.518-0.4 1.464-0.54 1.745l-0.1 0.201-0.12-0.302c-0.19-0.463-0.4-1.157-0.5-1.645l-0.090-0.438h-1.14l0.035 0.211z"></path>
<path d="M8.869 29.882c-0.41 0.277-1.3 0.865-1.971 1.308l-1.22 0.81h56.209l-3.901-2.616h-48.367l-0.75 0.498zM26.24 29.762c0.315 0.186 0.445 0.704 0.29 1.147-0.18 0.508-0.605 0.785-1.26 0.83l-0.42 0.025v-1.574h0.6v0.528c0 0.292 0.010 0.528 0.025 0.528 0.105 0 0.335-0.176 0.425-0.322 0.080-0.131 0.1-0.241 0.090-0.417-0.020-0.317-0.12-0.367-0.75-0.367-0.27 0-0.49-0.010-0.49-0.020 0-0.005 0.025-0.091 0.055-0.186s0.065-0.201 0.075-0.241c0.035-0.111 1.145-0.055 1.36 0.070zM29.846 29.857c0.030 0.126 0.055 0.236 0.055 0.252s-0.18 0.030-0.4 0.030c-0.395 0-0.4 0-0.4 0.126 0 0.121 0.010 0.126 0.34 0.126 0.19 0 0.355 0.010 0.37 0.025s0 0.126-0.035 0.241l-0.060 0.211-0.615 0.030v0.347h0.425c0.235 0 0.425 0.015 0.425 0.030s-0.025 0.126-0.055 0.251l-0.055 0.221h-1.34v-1.021c0-0.563 0.015-1.041 0.035-1.056 0.015-0.020 0.305-0.035 0.64-0.035h0.615l0.055 0.221zM32.947 29.857c0.030 0.126 0.055 0.236 0.055 0.252s-0.135 0.030-0.295 0.030c-0.165 0-0.31 0.020-0.325 0.045s0.105 0.191 0.27 0.372c0.46 0.508 0.535 0.795 0.265 1.051-0.105 0.101-0.185 0.116-0.585 0.131l-0.465 0.020-0.030-0.146c-0.020-0.075-0.045-0.191-0.065-0.252-0.030-0.111-0.020-0.116 0.3-0.116 0.215 0 0.33-0.020 0.33-0.055s-0.105-0.181-0.235-0.332c-0.34-0.387-0.415-0.518-0.415-0.719 0-0.362 0.21-0.488 0.805-0.498l0.335-0.005 0.055 0.221zM35.553 30.692v1.056h-0.6v-1.021c0-0.563 0.015-1.041 0.035-1.056 0.015-0.020 0.15-0.035 0.3-0.035h0.265v1.056zM39.119 29.872l0.070 0.241-0.495 0.025c-0.42 0.020-0.51 0.040-0.57 0.121-0.195 0.272 0.055 0.845 0.42 0.961 0.105 0.030 0.11 0.015 0.11-0.196 0-0.196-0.015-0.231-0.1-0.231s-0.1-0.035-0.1-0.252v-0.252h0.75v1.459h-0.29c-0.95 0-1.611-0.714-1.41-1.519 0.11-0.428 0.41-0.588 1.11-0.594h0.435l0.070 0.236zM42.011 29.968l0.27 0.332 0.015-0.337 0.015-0.332 0.57 0.030v2.062l-0.575 0.030v-0.317c0-0.307-0.010-0.327-0.26-0.644l-0.265-0.327-0.015 0.639-0.015 0.644h-0.545v-2.113h0.53l0.275 0.332zM24.449 30.089c0 0.101-0.035 0.101-7.413 0.101-7.372 0-7.418-0.005-7.293-0.101s0.255-0.101 7.418-0.101c7.253 0 7.288 0 7.288 0.101zM58.011 30.089c0.125 0.096 0.080 0.101-7.288 0.101-7.383 0-7.418 0-7.418-0.101s0.035-0.101 7.293-0.101c7.157 0 7.287 0.005 7.413 0.101zM24.449 30.692c0 0.101-0.035 0.101-7.863 0.101-7.828-0.005-7.868-0.005-7.748-0.101 0.115-0.101 0.235-0.101 7.863-0.101 7.713 0 7.748 0 7.748 0.101zM58.911 30.692c0.125 0.096 0.075 0.101-7.738 0.101-7.833 0-7.868 0-7.868-0.101s0.035-0.101 7.743-0.101c7.603 0 7.738 0.005 7.863 0.101zM24.449 31.296c0 0.101-0.035 0.101-8.303 0.101-4.567 0-8.303-0.020-8.303-0.040 0-0.146 0.365-0.156 8.418-0.156 8.158-0.005 8.188-0.005 8.188 0.096zM59.817 31.296c0.12 0.096 0.080 0.096-8.193 0.101-8.283 0-8.318 0-8.318-0.101s0.035-0.101 8.198-0.101c8.078 0 8.198 0 8.313 0.101z"></path>
</symbol>
<symbol id="menu" viewBox="0 0 32 32">
<path d="M28 24h-24v-2.667h24v2.667zM28 17.333h-24v-2.667h24v2.667zM28 10.667h-24v-2.667h24v2.667z"></path>
</symbol>
<symbol id="telegram" viewBox="0 0 32 32">
<path d="M27.633 5.737c0.335-0.132 0.716-0.074 0.996 0.152s0.417 0.586 0.358 0.941l-3.333 20c-0.056 0.337-0.281 0.623-0.595 0.756s-0.675 0.098-0.957-0.095l-7.647-5.233-3.745 3.779c-0.285 0.287-0.716 0.374-1.090 0.22s-0.62-0.519-0.62-0.925v-6.467l-8.475-1.21c-0.448-0.064-0.798-0.422-0.852-0.872s0.205-0.88 0.626-1.047l25.333-10zM13.75 17.985l10.187 6.969 2.68-16.083-12.867 9.115zM13 22.903l1.777-1.792-1.777-1.216v3.008zM6.543 16.209l5.203 0.743 8.917-6.316-14.12 5.573z"></path>
</symbol>
<symbol id="viber" viewBox="0 0 32 32">
<path d="M10.62 8.269c-0.248-0.036-0.501 0.014-0.716 0.141h-0.019c-0.5 0.293-0.951 0.663-1.335 1.097-0.32 0.369-0.493 0.743-0.539 1.103-0.027 0.213-0.008 0.429 0.055 0.633l0.024 0.013c0.36 1.057 0.829 2.075 1.403 3.032 0.74 1.344 1.649 2.588 2.707 3.7l0.032 0.045 0.051 0.037 0.031 0.036 0.037 0.032c1.116 1.060 2.362 1.974 3.709 2.72 1.54 0.839 2.475 1.235 3.036 1.4v0.008c0.164 0.051 0.313 0.073 0.464 0.073 0.478-0.034 0.931-0.229 1.285-0.552 0.433-0.384 0.8-0.836 1.085-1.339v-0.009c0.268-0.507 0.177-0.984-0.209-1.308-0.776-0.679-1.616-1.282-2.508-1.8-0.597-0.324-1.204-0.128-1.449 0.2l-0.524 0.661c-0.269 0.328-0.757 0.283-0.757 0.283l-0.013 0.008c-3.641-0.929-4.613-4.616-4.613-4.616s-0.045-0.501 0.292-0.757l0.656-0.528c0.315-0.256 0.533-0.861 0.196-1.459-0.517-0.891-1.118-1.731-1.796-2.507-0.148-0.182-0.356-0.306-0.587-0.351zM16.774 6.667c-0.177 0-0.346 0.070-0.471 0.195s-0.195 0.295-0.195 0.471c0 0.177 0.070 0.346 0.195 0.471s0.295 0.195 0.471 0.195c1.685 0 3.085 0.551 4.193 1.607 0.569 0.577 1.013 1.261 1.304 2.011 0.292 0.751 0.425 1.552 0.391 2.355-0.007 0.177 0.056 0.349 0.175 0.48s0.286 0.208 0.463 0.215 0.349-0.056 0.48-0.175c0.13-0.12 0.208-0.286 0.215-0.463 0.040-0.987-0.124-1.972-0.481-2.893-0.359-0.926-0.905-1.768-1.605-2.472l-0.013-0.013c-1.375-1.313-3.113-1.983-5.121-1.983z"></path>
<path d="M16.702 11.092c-0.089-0.008-0.179 0.002-0.264 0.030s-0.164 0.072-0.232 0.131c-0.068 0.059-0.123 0.131-0.162 0.211s-0.062 0.168-0.067 0.258 0.009 0.179 0.039 0.263c0.031 0.084 0.078 0.161 0.139 0.227s0.135 0.118 0.217 0.154 0.17 0.056 0.26 0.057c0.557 0.029 0.913 0.197 1.137 0.423 0.225 0.227 0.393 0.591 0.424 1.16 0.002 0.089 0.021 0.178 0.058 0.259s0.089 0.155 0.155 0.216c0.065 0.061 0.143 0.108 0.227 0.139s0.173 0.044 0.263 0.039c0.089-0.005 0.177-0.027 0.257-0.067s0.152-0.094 0.211-0.162 0.103-0.146 0.131-0.231c0.028-0.085 0.038-0.175 0.030-0.264-0.043-0.8-0.293-1.507-0.807-2.027-0.516-0.52-1.219-0.773-2.016-0.816z"></path>
<path d="M9.423 3.18c4.243-0.948 8.643-0.948 12.885 0l0.452 0.1c1.24 0.278 2.379 0.894 3.29 1.78s1.559 2.006 1.873 3.238c1.078 4.244 1.078 8.69 0 12.933-0.313 1.232-0.961 2.352-1.873 3.238s-2.050 1.502-3.29 1.779l-0.453 0.1c-2.657 0.593-5.384 0.817-8.103 0.665l-3.537 3.165c-0.133 0.119-0.296 0.201-0.472 0.236s-0.357 0.022-0.526-0.037c-0.169-0.059-0.319-0.163-0.434-0.3s-0.192-0.302-0.221-0.479l-0.585-3.496c-1.122-0.35-2.136-0.981-2.945-1.834s-1.386-1.899-1.675-3.038c-1.078-4.244-1.078-8.69 0-12.933 0.313-1.232 0.961-2.352 1.873-3.238s2.050-1.502 3.29-1.78l0.452-0.1zM21.872 5.131c-3.956-0.884-8.058-0.884-12.013 0l-0.453 0.101c-0.879 0.198-1.686 0.635-2.331 1.262s-1.105 1.422-1.327 2.295c-0.996 3.921-0.996 8.029 0 11.949 0.222 0.873 0.682 1.667 1.328 2.295s1.453 1.065 2.332 1.262l0.12 0.027c0.194 0.043 0.371 0.144 0.508 0.288s0.227 0.326 0.26 0.523l0.392 2.344 2.496-2.233c0.1-0.089 0.216-0.158 0.343-0.201s0.261-0.061 0.394-0.052c2.665 0.188 5.344-0.012 7.952-0.593l0.452-0.101c0.879-0.197 1.686-0.634 2.332-1.262s1.105-1.422 1.328-2.295c0.995-3.92 0.995-8.028 0-11.949-0.222-0.873-0.682-1.667-1.328-2.295s-1.453-1.065-2.332-1.262l-0.452-0.101z"></path>
<path d="M16.727 8.861c-0.177 0-0.346 0.070-0.471 0.195s-0.195 0.295-0.195 0.471c0 0.177 0.070 0.346 0.195 0.471s0.295 0.195 0.471 0.195h0.023c1.216 0.087 2.101 0.492 2.721 1.157 0.636 0.685 0.965 1.537 0.94 2.591-0.004 0.177 0.062 0.348 0.184 0.476s0.29 0.202 0.467 0.206c0.177 0.004 0.348-0.062 0.476-0.184s0.202-0.29 0.206-0.467c0.032-1.383-0.413-2.576-1.296-3.528v-0.003c-0.903-0.968-2.141-1.48-3.632-1.58l-0.023-0.003-0.067 0.001z"></path>
</symbol>
<symbol id="arrow" viewBox="0 0 32 32">
<path d="M26.599 11.333l-10.667 10.667-10.667-10.667 2-2 8.667 8.667 8.667-8.667 2 2z"></path>
</symbol>
<symbol id="icon-icon_individual" viewBox="0 0 39 32">
<path d="M36.513 31.891c1.292-0 2.344-1.193 2.344-2.657v-26.576c0-1.465-1.052-2.658-2.344-2.658h-34.167c-1.293 0-2.346 1.192-2.346 2.658v26.576c0 1.464 1.052 2.657 2.346 2.657h34.167zM0.671 2.658c0-1.047 0.75-1.898 1.674-1.898h34.167c0.923 0 1.674 0.852 1.674 1.898v3.037h-29.813c-0.184-0-0.335-0.171-0.335-0.38v-0.759c-0-0.628-0.45-1.139-1.004-1.139h-3.351c-0.553 0-1.005 0.511-1.005 1.139v0.759c0 0.209-0.15 0.38-0.334 0.38h-1.674v-3.037zM25.291 4.556c0.646 0 1.173-0.596 1.173-1.329s-0.527-1.329-1.173-1.329h-14.404c-0.646 0-1.171 0.596-1.171 1.329s0.525 1.329 1.171 1.329h14.404zM28.808 4.177c0.555-0 1.005-0.511 1.005-1.139s-0.45-1.139-1.005-1.139c-0.553 0-1.005 0.511-1.005 1.139s0.452 1.139 1.005 1.139zM32.157 4.177c0.555-0 1.005-0.511 1.005-1.139s-0.45-1.139-1.005-1.139c-0.553 0-1.004 0.511-1.004 1.139s0.45 1.139 1.004 1.139zM35.508 4.177c0.553-0 1.005-0.511 1.005-1.139s-0.452-1.139-1.005-1.139c-0.555 0-1.005 0.511-1.005 1.139s0.45 1.139 1.005 1.139zM10.887 3.796c-0.277 0-0.502-0.256-0.502-0.57s0.225-0.569 0.502-0.569h14.404c0.277 0 0.503 0.255 0.503 0.569s-0.227 0.57-0.503 0.57h-14.404zM28.808 3.418c-0.184 0-0.334-0.171-0.334-0.38s0.15-0.379 0.334-0.379c0.185 0 0.335 0.17 0.336 0.379s-0.15 0.38-0.336 0.38zM32.157 3.418c-0.184 0-0.334-0.171-0.334-0.38s0.15-0.379 0.334-0.379c0.185 0 0.336 0.17 0.336 0.379s-0.15 0.38-0.336 0.38zM35.508 3.418c-0.185 0-0.336-0.171-0.336-0.38s0.15-0.379 0.336-0.379c0.184 0 0.334 0.17 0.334 0.379s-0.15 0.38-0.334 0.38zM2.346 31.132c-0.924-0-1.674-0.852-1.674-1.898v-22.78h1.674c0.553 0 1.005-0.511 1.005-1.139v-0.759c0-0.209 0.15-0.379 0.334-0.379h3.351c0.184 0 0.334 0.17 0.334 0.379v0.759c0 0.628 0.45 1.139 1.005 1.139h29.813v22.78c0 1.046-0.752 1.898-1.674 1.898h-34.167zM31.823 22.779c0.923 0 1.674-0.852 1.674-1.898v-8.353c0-1.046-0.752-1.898-1.674-1.898h-8.375c-0.923 0-1.675 0.852-1.675 1.898v8.353c0 1.046 0.752 1.898 1.675 1.898h8.375zM4.356 14.426c0.923 0 1.675-0.851 1.675-1.898-0-1.046-0.752-1.898-1.675-1.898-0.924 0-1.676 0.852-1.676 1.898 0 1.047 0.752 1.898 1.676 1.898zM4.356 13.667c-0.555-0-1.005-0.51-1.005-1.139 0-0.627 0.45-1.139 1.005-1.139 0.553 0 1.004 0.512 1.004 1.139 0 0.629-0.45 1.139-1.004 1.139zM29.736 17.457c-0.365-0.277-0.842-0.253-1.185 0.057l-0.824 0.747c-0.134 0.122-0.325 0.11-0.446-0.027l-1.782-2.020c-0.393-0.445-1.030-0.445-1.422 0l-1.634 1.853v-5.539c0-0.627 0.452-1.139 1.005-1.139h8.375c0.553 0 1.005 0.512 1.005 1.139v7.265l-3.092-2.336zM29.813 16.705c1.108 0 2.010-1.022 2.010-2.278s-0.902-2.278-2.010-2.278c-1.108 0-2.010 1.022-2.010 2.278s0.902 2.278 2.010 2.278zM17.084 12.91c0.185-0 0.336-0.17 0.336-0.38s-0.15-0.38-0.336-0.38h-10.048c-0.185 0-0.336 0.17-0.336 0.38s0.15 0.38 0.336 0.38h10.048zM29.813 15.946c-0.739-0-1.339-0.682-1.339-1.519s0.6-1.518 1.339-1.518c0.739 0 1.341 0.681 1.341 1.518s-0.602 1.519-1.341 1.519zM8.71 15.185c0.184 0 0.334-0.169 0.334-0.379s-0.15-0.38-0.334-0.38h-1.674c-0.185 0-0.336 0.17-0.336 0.38s0.15 0.379 0.336 0.379h1.674zM12.059 15.185c0.185 0 0.336-0.169 0.336-0.379s-0.15-0.38-0.336-0.38h-1.674c-0.185 0-0.336 0.17-0.336 0.38s0.15 0.379 0.336 0.379h1.674zM15.409 15.185c0.185 0 0.336-0.169 0.336-0.379s-0.15-0.38-0.336-0.38h-1.674c-0.185 0-0.335 0.17-0.336 0.38s0.15 0.379 0.336 0.379h1.674zM23.449 22.020c-0.553 0-1.005-0.512-1.005-1.139v-1.74l2.108-2.39c0.13-0.148 0.343-0.148 0.474 0l1.782 2.020c0.362 0.41 0.938 0.445 1.338 0.083l0.824-0.747c0.115-0.103 0.272-0.112 0.396-0.020l3.463 2.619v0.175c0 0.627-0.452 1.139-1.005 1.139h-8.375zM4.356 23.16c0.923 0 1.675-0.852 1.675-1.9 0-1.046-0.752-1.898-1.675-1.898-0.924 0-1.676 0.852-1.676 1.898 0 1.047 0.752 1.899 1.676 1.9zM4.356 22.4c-0.555-0-1.005-0.51-1.005-1.139 0-0.627 0.45-1.138 1.005-1.138 0.553 0 1.004 0.511 1.004 1.138-0 0.629-0.45 1.139-1.004 1.139zM17.084 21.641c0.185-0 0.335-0.17 0.336-0.38 0-0.208-0.15-0.379-0.336-0.379h-10.048c-0.185 0-0.336 0.17-0.336 0.379 0 0.21 0.15 0.38 0.336 0.38h10.048zM8.71 23.92c0.184 0 0.334-0.17 0.334-0.38s-0.15-0.379-0.334-0.379h-1.674c-0.185 0-0.336 0.169-0.336 0.379s0.15 0.38 0.336 0.38h1.674zM12.059 23.92c0.185 0 0.336-0.17 0.336-0.38s-0.15-0.379-0.336-0.379h-1.674c-0.185 0-0.336 0.169-0.336 0.379s0.15 0.38 0.336 0.38h1.674zM15.409 23.92c0.185 0 0.336-0.17 0.336-0.38s-0.15-0.379-0.336-0.379h-1.674c-0.185 0-0.336 0.169-0.336 0.379s0.15 0.38 0.336 0.38h1.674z"></path>
</symbol>
<symbol id="icon-icon_project" viewBox="0 0 39 32">
<path d="M36.513 31.775c1.293 0 2.345-1.188 2.345-2.649v-2.071c0-0.002 0-0.003 0-0.005v-5.305c0-0.002-0-0.004-0-0.006v-6.406c0-0.002 0-0.004 0-0.006v-7.066c0-0.002-0-0.004-0-0.005v-5.608c0-1.461-1.052-2.649-2.344-2.649h-34.168c-1.29 0-2.344 1.188-2.345 2.649v26.477c0 1.461 1.054 2.649 2.345 2.649h34.168zM0.671 2.649c0-1.044 0.752-1.893 1.673-1.893h34.168c0.923 0 1.676 0.849 1.676 1.893v2.647h-37.517v-2.647zM22.778 4.161c0.555 0 1.006-0.508 1.006-1.135-0-0.625-0.451-1.135-1.006-1.135h-16.079c-0.552 0-1.003 0.51-1.003 1.135 0 0.627 0.451 1.135 1.003 1.135h16.079zM28.811 4.161c0.553-0 1.003-0.509 1.003-1.135 0-0.625-0.45-1.135-1.003-1.135-0.556 0-1.006 0.51-1.006 1.135 0 0.626 0.45 1.135 1.006 1.135zM32.16 4.161c0.553 0 1.005-0.508 1.005-1.135 0-0.625-0.452-1.135-1.005-1.135-0.556 0-1.004 0.51-1.004 1.135 0 0.627 0.449 1.135 1.004 1.135zM35.509 4.161c0.555-0 1.005-0.509 1.005-1.135 0-0.625-0.45-1.135-1.005-1.135-0.553 0-1.006 0.51-1.006 1.135 0 0.626 0.453 1.135 1.006 1.135zM6.699 3.405c-0.182-0-0.332-0.169-0.332-0.379 0-0.208 0.15-0.377 0.332-0.377h16.079c0.187 0 0.337 0.17 0.337 0.377 0 0.209-0.151 0.379-0.337 0.379h-16.079zM28.811 3.405c-0.184 0-0.335-0.169-0.335-0.379 0-0.208 0.15-0.377 0.335-0.377s0.334 0.17 0.334 0.377c-0 0.209-0.15 0.379-0.334 0.379zM32.16 3.405c-0.186-0-0.335-0.17-0.335-0.379 0-0.208 0.149-0.377 0.335-0.377 0.184 0 0.333 0.17 0.333 0.377 0 0.21-0.149 0.379-0.333 0.379zM35.509 3.405c-0.185 0-0.335-0.17-0.335-0.379 0-0.208 0.15-0.377 0.335-0.377s0.335 0.17 0.335 0.377c-0 0.209-0.15 0.379-0.335 0.379zM2.345 31.019c-0.921 0-1.673-0.849-1.673-1.893v-23.074h37.517v1.762c-0.143 0.006-0.285 0.047-0.417 0.123-0.242 0.138-0.418 0.372-0.501 0.66l-0.365 1.278c-0.901-0.096-1.791-0.017-2.654 0.239l-0.541-1.195c-0.123-0.272-0.329-0.473-0.586-0.567-0.254-0.093-0.528-0.066-0.762 0.072l-1.2 0.686c-0.496 0.293-0.687 0.961-0.435 1.526l0.544 1.195c-0.692 0.638-1.271 1.406-1.728 2.287l-1.134-0.412c-0.523-0.194-1.092 0.133-1.265 0.728l-0.41 1.439c-0.174 0.595 0.116 1.236 0.644 1.431l1.132 0.412c-0.086 1.019-0.015 2.022 0.211 2.996l-1.057 0.612c-0.241 0.138-0.42 0.373-0.503 0.661-0.080 0.289-0.060 0.595 0.063 0.861l0.609 1.355c0.257 0.56 0.85 0.776 1.351 0.49l1.059-0.61c0.563 0.777 1.243 1.432 2.023 1.949l-0.365 1.279c-0.171 0.593 0.118 1.235 0.644 1.429l1.278 0.465c0.101 0.038 0.204 0.057 0.307 0.057 0.156 0 0.312-0.043 0.458-0.125 0.239-0.138 0.417-0.372 0.5-0.66l0.365-1.28c0.901 0.098 1.791 0.019 2.654-0.237l0.083 0.185v1.984c0 1.044-0.752 1.893-1.676 1.893h-6.631c-0.042-0.396-0.106-0.788-0.196-1.175l1.057-0.61c0.242-0.138 0.42-0.374 0.504-0.663 0.081-0.287 0.059-0.593-0.064-0.862l-0.61-1.349c-0.121-0.269-0.329-0.469-0.583-0.562s-0.526-0.068-0.766 0.068l-1.059 0.612c-0.568-0.781-1.25-1.436-2.025-1.951l0.365-1.278c0.084-0.286 0.062-0.593-0.059-0.864-0.123-0.271-0.328-0.472-0.583-0.567l-1.274-0.464c-0.528-0.196-1.096 0.131-1.269 0.726l-0.368 1.28c-0.899-0.096-1.788-0.017-2.652 0.239l-0.538-1.195c-0.123-0.272-0.331-0.474-0.587-0.567-0.254-0.093-0.526-0.067-0.763 0.071l-1.195 0.688c-0.239 0.138-0.415 0.372-0.499 0.66-0.081 0.287-0.062 0.595 0.062 0.864l0.541 1.195c-0.691 0.645-1.272 1.413-1.728 2.288l-1.131-0.414c-0.526-0.194-1.094 0.133-1.267 0.728l-0.41 1.439c-0.173 0.595 0.116 1.236 0.642 1.431l0.631 0.231h-11.711zM34.282 28.459c-0.080 0.047-0.171 0.055-0.256 0.023l-1.273-0.465c-0.176-0.065-0.271-0.278-0.216-0.477l0.45-1.574c0.050-0.173-0.018-0.362-0.158-0.449-0.883-0.54-1.633-1.261-2.229-2.147-0.065-0.096-0.166-0.15-0.267-0.15-0.050 0-0.103 0.014-0.151 0.042l-1.303 0.753c-0.166 0.095-0.367 0.022-0.453-0.163l-0.606-1.355c-0.040-0.088-0.048-0.19-0.020-0.283 0.025-0.096 0.086-0.173 0.166-0.219l1.305-0.753c0.143-0.085 0.214-0.272 0.166-0.447-0.284-1.064-0.362-2.174-0.231-3.299 0.020-0.181-0.078-0.352-0.229-0.409l-1.394-0.507c-0.174-0.063-0.269-0.281-0.214-0.477l0.413-1.441c0.055-0.196 0.247-0.306 0.423-0.241l1.394 0.507c0.153 0.055 0.32-0.020 0.395-0.18 0.48-0.997 1.117-1.843 1.902-2.516 0.131-0.111 0.171-0.311 0.095-0.474l-0.664-1.469c-0.086-0.189-0.020-0.414 0.144-0.51l1.197-0.686c0.078-0.045 0.169-0.055 0.252-0.025 0.086 0.032 0.153 0.098 0.193 0.191l0.667 1.471c0.073 0.163 0.239 0.243 0.397 0.189 0.941-0.321 1.925-0.41 2.921-0.262 0.158 0.025 0.312-0.085 0.362-0.259l0.448-1.572c0.028-0.095 0.088-0.171 0.169-0.218 0.035-0.022 0.075-0.035 0.113-0.040v6.032c-0.241-0.156-0.498-0.286-0.772-0.386-1.021-0.374-2.11-0.277-3.066 0.273-0.956 0.552-1.665 1.491-1.995 2.645-0.332 1.153-0.247 2.383 0.241 3.463s1.321 1.88 2.342 2.252c1.099 0.404 2.272 0.258 3.25-0.382v3.676c-0.002 0.002-0.005 0.002-0.007 0.002-0.943 0.322-1.924 0.41-2.921 0.264-0.158-0.023-0.312 0.085-0.362 0.259l-0.448 1.572c-0.028 0.093-0.088 0.171-0.169 0.218zM38.188 21.562c-0.871 0.74-1.998 0.954-3.041 0.57-0.855-0.311-1.547-0.977-1.954-1.877-0.405-0.899-0.476-1.924-0.199-2.886 0.274-0.962 0.865-1.745 1.66-2.204 0.797-0.459 1.706-0.54 2.556-0.228 0.359 0.133 0.688 0.324 0.978 0.572v6.053zM15.252 31.019c0-0.012 0-0.023 0.003-0.033 0.020-0.181-0.077-0.35-0.23-0.407l-1.393-0.51c-0.173-0.063-0.269-0.283-0.215-0.477l0.412-1.44c0.057-0.198 0.247-0.306 0.422-0.241l1.395 0.51c0.151 0.057 0.319-0.020 0.398-0.181 0.474-0.99 1.114-1.838 1.901-2.517 0.128-0.111 0.17-0.311 0.096-0.474l-0.669-1.471c-0.040-0.090-0.047-0.191-0.020-0.288 0.030-0.094 0.089-0.173 0.165-0.218l1.2-0.69c0.077-0.046 0.166-0.055 0.25-0.025 0.084 0.032 0.153 0.098 0.195 0.19l0.667 1.472c0.074 0.163 0.24 0.243 0.395 0.189 0.943-0.322 1.924-0.409 2.916-0.262 0.158 0.021 0.314-0.085 0.363-0.259l0.452-1.572c0.057-0.194 0.252-0.306 0.422-0.241l1.276 0.464c0.084 0.032 0.151 0.098 0.193 0.189 0.039 0.091 0.047 0.192 0.022 0.287l-0.455 1.574c-0.049 0.175 0.018 0.362 0.161 0.45 0.879 0.535 1.63 1.258 2.23 2.147 0.099 0.145 0.274 0.191 0.42 0.108l1.304-0.755c0.077-0.045 0.168-0.051 0.252-0.021 0.084 0.032 0.153 0.098 0.195 0.186l0.61 1.351v0.002c0.039 0.090 0.047 0.189 0.022 0.284-0.027 0.095-0.086 0.173-0.168 0.22l-1.304 0.753c-0.143 0.083-0.215 0.271-0.168 0.445 0.109 0.412 0.19 0.834 0.237 1.261h-3.060c-0.306-1.565-1.311-2.818-2.679-3.315-1.022-0.374-2.111-0.278-3.069 0.272-0.953 0.552-1.662 1.491-1.993 2.644-0.040 0.135-0.072 0.267-0.096 0.399h-3.057zM18.999 31.019c0.013-0.054 0.028-0.109 0.044-0.165 0.274-0.962 0.864-1.745 1.662-2.203 0.795-0.459 1.704-0.54 2.558-0.226 1.090 0.395 1.905 1.369 2.197 2.595h-6.461z"></path>
</symbol>
<symbol id="icon-icon_quality" viewBox="0 0 23 32">
<path d="M22.327 31.736c0.147 0 0.266-0.122 0.266-0.272v-28.273c0-0.15-0.119-0.271-0.266-0.271h-6.111v-0.749c0-0.15-0.119-0.271-0.266-0.271h-2.453c-0.177-1.083-1.098-1.899-2.199-1.899s-2.024 0.816-2.201 1.899h-2.453c-0.147 0-0.266 0.121-0.266 0.271v0.749h-6.112c-0.146 0-0.265 0.121-0.265 0.271v28.273c0 0.15 0.119 0.272 0.265 0.272h22.062zM6.909 2.442h2.426c0.141-0 0.258-0.113 0.265-0.257 0.047-0.92 0.793-1.642 1.698-1.642 0.903 0 1.649 0.722 1.696 1.642 0.008 0.144 0.124 0.257 0.265 0.257h2.425v0.738c-0 0.004-0.001 0.007-0.001 0.011v3.14h-8.775v-3.89zM11.297 5.801c0.73 0 1.325-0.607 1.325-1.353s-0.595-1.354-1.325-1.354c-0.731 0-1.326 0.607-1.326 1.354s0.595 1.353 1.326 1.353zM0.532 3.462h5.845v1.638h-4.409c-0.147 0-0.266 0.121-0.266 0.271v23.912c0 0.15 0.119 0.271 0.266 0.271h18.657c0.147 0 0.266-0.121 0.266-0.271v-23.912c0-0.15-0.119-0.271-0.266-0.271h-4.409v-1.638h5.845v27.73h-21.529v-27.73zM11.297 5.258c-0.438-0-0.794-0.364-0.794-0.81s0.356-0.81 0.794-0.81c0.437 0 0.793 0.363 0.793 0.81s-0.356 0.81-0.793 0.81zM2.233 5.644h4.143v0.96c0 0.047 0.012 0.091 0.032 0.129 0.004 0.008 0.009 0.015 0.013 0.022 0.048 0.072 0.129 0.12 0.221 0.12h9.31c0.017-0 0.034-0.002 0.051-0.005 0.006-0.001 0.011-0.003 0.016-0.004s0.012-0.004 0.018-0.006c0.005-0.002 0.010-0.004 0.015-0.006s0.008-0.004 0.012-0.006c0.089-0.044 0.151-0.137 0.151-0.244v-0.96h4.143v23.369h-18.126v-23.369zM9.984 14.609c0.146 0 0.265-0.121 0.265-0.271v-5.026c0-0.15-0.119-0.272-0.265-0.272h-5.717c-0.146 0-0.265 0.122-0.265 0.272v5.026c0 0.15 0.119 0.271 0.265 0.271h5.717zM4.533 9.582h5.185v4.484h-5.185v-4.484zM18.707 10.654c0.147 0 0.266-0.121 0.266-0.272s-0.119-0.271-0.266-0.271h-6.755c-0.147 0-0.266 0.121-0.266 0.271s0.119 0.272 0.266 0.272h6.755zM6.326 13.226c0.002-0 0.003-0 0.004-0 0.007-0.001 0.013-0.001 0.020-0.003 0.005-0.001 0.009-0.002 0.014-0.003 0.011-0.002 0.021-0.006 0.031-0.010 0.003-0.001 0.007-0.003 0.010-0.004 0.005-0.002 0.011-0.004 0.016-0.007 0.010-0.005 0.019-0.010 0.029-0.017 0-0 0.001-0.001 0.002-0.001s0.002-0.001 0.003-0.002c0.006-0.004 0.012-0.009 0.018-0.013 0-0 0.001-0.001 0.002-0.001l0.013-0.012 2.061-2.001c0.106-0.103 0.11-0.275 0.009-0.384s-0.27-0.113-0.376-0.009l-1.831 1.778-0.616-0.942c-0.082-0.125-0.246-0.158-0.368-0.075-0.122 0.084-0.156 0.252-0.074 0.377l0.785 1.201c0.010 0.016 0.021 0.032 0.035 0.046 0.004 0.005 0.009 0.009 0.013 0.013 0.001 0.001 0.002 0.002 0.004 0.003 0.007 0.006 0.013 0.011 0.020 0.016 0.014 0.010 0.029 0.019 0.044 0.026 0.004 0.002 0.008 0.003 0.012 0.005 0.007 0.003 0.013 0.005 0.020 0.007 0.001 0 0.001 0 0.002 0.001 0.025 0.008 0.052 0.012 0.078 0.012 0.007 0 0.014-0.001 0.021-0.002zM16.053 13.149c0.147 0 0.266-0.122 0.266-0.271-0-0.151-0.119-0.272-0.266-0.272h-4.102c-0.147 0-0.266 0.121-0.266 0.272 0 0.149 0.119 0.271 0.266 0.271h4.102zM9.984 25.615c0.146 0 0.265-0.121 0.265-0.271v-5.026c0-0.15-0.119-0.272-0.265-0.272h-5.717c-0.146 0-0.265 0.122-0.265 0.272v5.026c0 0.15 0.119 0.271 0.265 0.271h5.717zM4.534 20.589h5.185v4.484h-5.185v-4.484zM18.707 22.047c0.147 0 0.266-0.121 0.266-0.271s-0.119-0.272-0.266-0.272h-6.755c-0.147 0-0.266 0.122-0.266 0.272s0.119 0.271 0.266 0.271h6.755zM6.259 24.321c0.002-0 0.005-0 0.007-0.001 0.006-0.001 0.012-0.001 0.018-0.002s0.014-0.003 0.020-0.004c0.007-0.002 0.013-0.004 0.020-0.006 0.009-0.003 0.017-0.006 0.026-0.010 0.001-0 0.002-0.001 0.003-0.001 0.025-0.012 0.049-0.028 0.070-0.048l2.061-2.001c0.106-0.103 0.11-0.275 0.009-0.384s-0.27-0.113-0.376-0.009l-1.831 1.778-0.616-0.943c-0.082-0.125-0.246-0.158-0.368-0.075-0.122 0.084-0.155 0.252-0.074 0.377l0.791 1.211c0.002 0.003 0.004 0.005 0.006 0.008 0.003 0.004 0.006 0.008 0.009 0.012 0.004 0.005 0.008 0.010 0.012 0.014 0.001 0.001 0.001 0.001 0.002 0.002s0.003 0.003 0.004 0.004c0.051 0.052 0.119 0.080 0.189 0.080 0.007 0 0.013-0.001 0.020-0.002zM16.053 24.545c0.147 0 0.266-0.122 0.266-0.272s-0.119-0.272-0.266-0.272h-4.102c-0.147 0-0.266 0.122-0.266 0.272s0.119 0.272 0.266 0.272h4.102z"></path>
</symbol>
<symbol id="icon-icon_quality-1" viewBox="0 0 31 32">
<path d="M0.993 17.691c8.414-0.128 19.878-1.992 26.701-10.128 0.066-0.073 0.175-0.197 0.278-0.317 0.003-0.003 0.005-0.005 0.008-0.008l1.066 0.848c0.276 0.22 0.64 0.276 0.972 0.149 0.318-0.121 0.547-0.389 0.611-0.717 0.212-1.089 0.378-2.184 0.505-3.347 0.122-1.135 0.196-2.176 0.228-3.182 0.010-0.333-0.152-0.643-0.436-0.827-0.299-0.195-0.682-0.215-0.999-0.052-1.836 0.946-3.708 1.742-5.563 2.37-0.34 0.114-0.587 0.402-0.645 0.748-0.058 0.342 0.072 0.678 0.348 0.897l0.974 0.775c-1.281 1.448-2.473 2.583-3.636 3.462-4.804 3.584-11.492 5.429-20.447 5.643-0.536 0.013-0.956 0.431-0.956 0.954v1.773c0 0.252 0.099 0.489 0.278 0.671 0.183 0.184 0.437 0.289 0.699 0.289h0.015zM0.983 17.056c-0.095 0.004-0.2-0.038-0.269-0.107-0.060-0.060-0.092-0.137-0.092-0.218v-1.773c0-0.174 0.153-0.315 0.348-0.319 9.086-0.216 15.89-2.102 20.801-5.766 1.267-0.958 2.561-2.202 3.955-3.805 0.057-0.066 0.085-0.152 0.077-0.24s-0.050-0.168-0.118-0.222l-1.237-0.983c-0.093-0.074-0.136-0.18-0.117-0.289 0.020-0.116 0.105-0.211 0.228-0.252 1.884-0.636 3.784-1.446 5.648-2.404 0.056-0.029 0.117-0.043 0.177-0.043 0.072 0 0.144 0.021 0.208 0.062 0.046 0.031 0.154 0.117 0.149 0.272-0.031 0.989-0.105 2.014-0.225 3.132-0.125 1.144-0.288 2.222-0.497 3.293-0.031 0.159-0.162 0.225-0.217 0.245-0.129 0.049-0.269 0.029-0.373-0.054l-1.296-1.031c-0.128-0.102-0.311-0.085-0.421 0.036-0.051 0.057-0.126 0.144-0.205 0.236-0.099 0.113-0.203 0.234-0.276 0.314-6.681 7.967-17.961 9.789-26.247 9.916zM30.451 31.744c0.514 0 0.933-0.427 0.933-0.951v-17.144c0-0.526-0.419-0.953-0.933-0.953h-3.11c-0.514 0-0.933 0.427-0.933 0.953v17.144c0 0.524 0.419 0.951 0.933 0.951h3.11zM27.342 31.109c-0.171 0-0.311-0.142-0.311-0.317v-17.144c0-0.176 0.14-0.318 0.311-0.318h3.11c0.171 0 0.311 0.142 0.311 0.318v17.144c0 0.174-0.14 0.317-0.311 0.317h-3.11zM21.745 31.744c0.514 0 0.933-0.427 0.933-0.951v-13.969c0-0.526-0.418-0.953-0.933-0.953h-3.11c-0.514 0-0.933 0.427-0.933 0.953v13.969c0 0.524 0.419 0.951 0.933 0.951h3.11zM18.635 31.109c-0.171 0-0.311-0.142-0.311-0.317v-13.969c0-0.174 0.14-0.318 0.311-0.318h3.11c0.171 0 0.311 0.144 0.311 0.318v13.969c0 0.174-0.14 0.317-0.311 0.317h-3.11zM13.037 31.744c0.514 0 0.933-0.427 0.933-0.951v-10.795c0-0.524-0.418-0.953-0.933-0.953h-3.11c-0.514 0-0.933 0.428-0.933 0.953v10.795c0 0.524 0.419 0.951 0.933 0.951h3.11zM9.928 31.109c-0.171 0-0.311-0.142-0.311-0.317v-10.795c0-0.174 0.14-0.317 0.311-0.317h3.11c0.171 0 0.311 0.142 0.311 0.317v10.795c0 0.174-0.14 0.317-0.311 0.317h-3.11zM4.33 31.744c0.514 0 0.933-0.427 0.933-0.951v-8.255c0-0.524-0.418-0.952-0.933-0.953h-3.11c-0.514 0-0.933 0.428-0.933 0.953v8.255c0 0.524 0.418 0.951 0.933 0.951h3.11zM1.22 31.109c-0.171 0-0.311-0.142-0.311-0.317v-8.255c0-0.174 0.14-0.317 0.311-0.317h3.11c0.171 0 0.311 0.142 0.311 0.317v8.255c0 0.174-0.139 0.317-0.311 0.317h-3.11z"></path>
</symbol>
<symbol id="icon-icon_team" viewBox="0 0 31 32">
<path d="M15.538 9.203c1.012 0 2.271-0 2.89-1.043 0.237-0.394 0.226-0.835 0.218-1.262 0-0.077-0.003-0.155-0.003-0.234 0-1.297-0.166-3.043-1.512-3.773 0.171-0.288 0.27-0.626 0.27-0.987 0-1.050-0.835-1.904-1.863-1.904s-1.865 0.854-1.865 1.904c0 0.361 0.099 0.699 0.27 0.987-1.349 0.73-1.515 2.476-1.515 3.773 0 0.079-0.003 0.157-0.003 0.234-0.008 0.427-0.016 0.869 0.218 1.261 0.622 1.044 1.882 1.044 2.893 1.044zM15.539 3.173c-0.685-0-1.245-0.569-1.245-1.269s0.56-1.269 1.245-1.269 1.243 0.57 1.243 1.269c-0 0.343-0.134 0.654-0.351 0.883-0.009 0.008-0.017 0.017-0.025 0.026-0.224 0.223-0.53 0.361-0.867 0.361zM15.538 8.568c-0.903 0-1.922-0-2.361-0.74-0.142-0.235-0.136-0.552-0.128-0.918 0.003-0.082 0.003-0.164 0.003-0.246 0-1.854 0.407-2.876 1.318-3.278 0.32 0.264 0.727 0.422 1.17 0.422s0.848-0.158 1.167-0.421c0.91 0.403 1.319 1.425 1.319 3.277 0 0.083-0 0.165 0.003 0.246 0.005 0.366 0.014 0.682-0.128 0.919-0.442 0.739-1.462 0.739-2.361 0.739zM28.599 31.735c0.863 0 1.682 0 2.082-0.41 0.336-0.342 0.404-1.189 0.404-2.446 0-0.96-0.476-1.786-1.246-2.22 0.196-0.266 0.313-0.597 0.313-0.954-0-0.767-0.535-1.409-1.244-1.555v-0.348c-0-0.875-0.698-1.587-1.554-1.587h-3.113l0.003-0.953c0.748-0.005 1.424-0.048 1.776-0.41 0.336-0.342 0.402-1.189 0.402-2.446 0-0.961-0.476-1.787-1.246-2.221 0.196-0.266 0.313-0.596 0.313-0.953 0-0.766-0.534-1.407-1.241-1.555v-0.667c0-0.875-0.699-1.587-1.554-1.587h-6.846v-1.269c0-0.175-0.138-0.317-0.309-0.317-0.173 0-0.312 0.142-0.312 0.317v1.269h-6.838c-0.856 0-1.554 0.712-1.554 1.587v0.668c-0.707 0.148-1.243 0.789-1.243 1.554 0 0.358 0.117 0.688 0.313 0.954-0.769 0.432-1.244 1.257-1.244 2.22 0 1.257 0.067 2.104 0.401 2.446 0.352 0.36 1.025 0.404 1.769 0.41l-0.003 0.952h-3.098c-0.857 0-1.556 0.712-1.556 1.587v0.349c-0.707 0.147-1.243 0.789-1.243 1.555 0 0.358 0.117 0.688 0.313 0.954-0.77 0.432-1.245 1.258-1.245 2.22 0 1.257 0.066 2.104 0.402 2.446 0.402 0.41 1.218 0.41 2.082 0.41 0.867 0 1.683 0 2.085-0.41 0.336-0.342 0.401-1.189 0.401-2.446 0-0.962-0.476-1.787-1.244-2.219 0.197-0.266 0.314-0.597 0.314-0.955 0-0.765-0.535-1.406-1.242-1.554v-0.35c0-0.525 0.417-0.952 0.932-0.952h6.837c0.513 0 0.932 0.427 0.932 0.952v0.349c-0.708 0.146-1.244 0.788-1.244 1.555 0 0.357 0.116 0.688 0.313 0.953-0.77 0.432-1.246 1.257-1.246 2.22 0 1.257 0.068 2.104 0.402 2.446 0.402 0.41 1.22 0.41 2.084 0.41 0.867 0 1.685 0 2.084-0.41 0.335-0.342 0.402-1.189 0.402-2.446-0-0.962-0.475-1.788-1.245-2.22 0.196-0.266 0.313-0.596 0.313-0.954 0-0.766-0.533-1.407-1.242-1.555v-0.349c0-0.875-0.699-1.587-1.553-1.587h-3.117l0.003-0.952c0.747-0.005 1.423-0.049 1.776-0.41 0.337-0.342 0.404-1.189 0.404-2.446-0-0.963-0.476-1.788-1.246-2.22 0.196-0.266 0.313-0.596 0.313-0.953 0-0.766-0.536-1.408-1.244-1.555v-0.667c0-0.525 0.42-0.952 0.933-0.952h14.305c0.514 0 0.933 0.427 0.933 0.952v0.667c-0.708 0.147-1.243 0.788-1.243 1.555 0 0.357 0.117 0.688 0.313 0.953-0.77 0.434-1.245 1.26-1.245 2.22 0 1.256 0.067 2.104 0.402 2.446 0.353 0.36 1.025 0.404 1.77 0.41l-0.003 0.953h-3.103c-0.856 0-1.554 0.712-1.554 1.587v0.349c-0.708 0.148-1.24 0.789-1.241 1.554 0 0.358 0.116 0.688 0.313 0.954-0.769 0.434-1.245 1.259-1.245 2.219 0 1.257 0.066 2.104 0.401 2.446 0.404 0.41 1.219 0.41 2.087 0.41 0.865 0 1.681 0 2.084-0.41 0.335-0.341 0.401-1.189 0.401-2.446 0-0.96-0.476-1.786-1.246-2.22 0.197-0.266 0.313-0.596 0.313-0.954-0-0.767-0.537-1.408-1.245-1.555v-0.348c0-0.525 0.419-0.952 0.932-0.952h6.837c0.516 0 0.932 0.427 0.932 0.952v0.349c-0.709 0.148-1.242 0.789-1.242 1.555 0 0.357 0.116 0.688 0.312 0.954-0.77 0.434-1.244 1.26-1.244 2.221 0 1.256 0.067 2.104 0.401 2.446 0.401 0.41 1.219 0.41 2.085 0.41zM7.147 16.185c-0.188 0-0.364-0.057-0.51-0.156-0.005-0.004-0.010-0.007-0.016-0.010-0.246-0.172-0.407-0.46-0.407-0.786 0-0.525 0.419-0.952 0.933-0.952s0.933 0.427 0.933 0.952c-0 0.324-0.16 0.611-0.403 0.783-0.009 0.005-0.018 0.011-0.026 0.017-0.145 0.096-0.318 0.152-0.504 0.152zM23.938 16.185c-0.515 0-0.933-0.427-0.933-0.952s0.418-0.952 0.933-0.952c0.515 0 0.933 0.427 0.933 0.952s-0.418 0.952-0.933 0.952zM23.938 20.627c-0.635 0-1.426-0-1.645-0.224-0.1-0.102-0.219-0.532-0.219-1.997 0-0.809 0.444-1.488 1.143-1.769 0.216 0.116 0.461 0.182 0.721 0.182s0.505-0.066 0.721-0.182c0.7 0.28 1.143 0.96 1.143 1.769-0 1.465-0.119 1.894-0.219 1.997-0.219 0.224-1.010 0.224-1.645 0.224zM7.146 20.627c-0.633 0-1.424 0-1.646-0.224-0.099-0.102-0.219-0.532-0.219-1.997 0-0.81 0.445-1.49 1.145-1.768 0.216 0.116 0.461 0.182 0.721 0.182s0.505-0.066 0.721-0.182c0.7 0.278 1.143 0.958 1.143 1.768 0 1.465-0.12 1.895-0.219 1.997-0.219 0.224-1.010 0.224-1.646 0.224zM11.808 26.657c-0.186 0-0.36-0.057-0.506-0.154-0.006-0.005-0.013-0.009-0.020-0.013-0.245-0.172-0.407-0.459-0.407-0.785 0-0.525 0.42-0.952 0.932-0.952 0.515 0 0.932 0.427 0.932 0.952s-0.418 0.952-0.932 0.952zM2.485 26.657c-0.512 0-0.931-0.427-0.931-0.952s0.419-0.952 0.931-0.952c0.514 0 0.933 0.427 0.933 0.952 0 0.328-0.164 0.618-0.412 0.789-0.002 0.001-0.004 0.003-0.007 0.004-0.148 0.1-0.325 0.159-0.515 0.159zM19.277 26.657c-0.515-0-0.932-0.427-0.932-0.952s0.416-0.952 0.932-0.952c0.512 0 0.931 0.427 0.932 0.952s-0.419 0.952-0.932 0.952zM28.601 26.657c-0.515 0-0.935-0.427-0.935-0.952s0.42-0.952 0.935-0.952c0.512 0 0.929 0.427 0.929 0.952s-0.417 0.952-0.929 0.952zM19.279 31.099c-0.637 0-1.428 0-1.647-0.224-0.099-0.103-0.22-0.532-0.22-1.997 0-0.808 0.446-1.488 1.143-1.768 0.216 0.116 0.462 0.182 0.722 0.182s0.505-0.066 0.721-0.182c0.698 0.28 1.145 0.96 1.145 1.769 0 1.465-0.121 1.894-0.22 1.997-0.22 0.224-1.011 0.224-1.645 0.224zM11.809 31.099c-0.634 0-1.426 0-1.644-0.224-0.1-0.103-0.221-0.533-0.221-1.997 0-0.81 0.445-1.49 1.145-1.768 0.215 0.116 0.46 0.182 0.719 0.182 0.261 0 0.507-0.066 0.723-0.182 0.698 0.278 1.144 0.958 1.144 1.768 0 1.465-0.122 1.895-0.219 1.997-0.221 0.224-1.013 0.224-1.647 0.224zM2.484 31.1c-0.634 0-1.424 0-1.644-0.224-0.1-0.102-0.219-0.532-0.219-1.997 0-0.811 0.446-1.491 1.144-1.769 0.216 0.116 0.461 0.182 0.72 0.182s0.505-0.066 0.72-0.181c0.699 0.278 1.145 0.958 1.145 1.768 0 1.465-0.119 1.895-0.219 1.997-0.219 0.224-1.012 0.224-1.646 0.224zM28.599 31.1c-0.633 0-1.424 0-1.646-0.224-0.098-0.102-0.218-0.532-0.218-1.997 0-0.809 0.443-1.489 1.143-1.769 0.216 0.116 0.462 0.182 0.722 0.182s0.505-0.066 0.72-0.182c0.699 0.281 1.143 0.96 1.143 1.769 0 1.465-0.118 1.895-0.219 1.997-0.219 0.224-1.009 0.224-1.645 0.224z"></path>
</symbol>
<symbol id="icon-icon_time" viewBox="0 0 26 32">
<path d="M13.088 31.736c7.216 0 13.088-5.98 13.088-13.329-0-2.587-0.729-5.004-1.986-7.050l1.564-1.592c0.608-0.619 0.607-1.626 0-2.245l-1.976-2.013c-0.607-0.619-1.596-0.619-2.204 0l-1.564 1.594c-1.071-0.683-2.246-1.212-3.494-1.557v-2.37h0.623c0.859 0 1.558-0.712 1.558-1.587 0-0.876-0.699-1.587-1.558-1.587h-8.102c-0.859 0-1.558 0.711-1.558 1.587 0 0.874 0.699 1.587 1.558 1.587h0.623v2.37c-5.559 1.538-9.66 6.721-9.66 12.864 0 7.35 5.871 13.329 13.088 13.329zM9.037 2.539c-0.515 0-0.935-0.428-0.935-0.952 0-0.526 0.419-0.952 0.935-0.952h8.102c0.516 0 0.935 0.427 0.935 0.952 0 0.524-0.419 0.952-0.935 0.952h-8.102zM15.892 5.387c-0.904-0.202-1.842-0.309-2.805-0.309s-1.9 0.108-2.804 0.309v-2.214h5.609v2.214zM23.839 10.816c-0.894-1.31-2.013-2.449-3.299-3.359l1.474-1.502c0.365-0.371 0.957-0.371 1.322 0l1.976 2.013c0.365 0.371 0.365 0.976 0 1.347l-1.474 1.501zM13.088 31.101c-6.873 0-12.464-5.695-12.464-12.695s5.591-12.694 12.464-12.694c2.442 0 4.721 0.72 6.646 1.96l0.297 0.302 0.062-0.063c1.295 0.899 2.415 2.040 3.299 3.359l-0.061 0.063 0.296 0.302c1.219 1.961 1.926 4.283 1.926 6.77 0 7-5.592 12.695-12.465 12.695zM13.088 29.796c6.186-0 11.218-5.125 11.218-11.425 0-6.299-5.032-11.424-11.218-11.424s-11.218 5.125-11.218 11.424c0 6.3 5.033 11.425 11.218 11.425zM13.088 29.161c-5.842 0-10.595-4.84-10.595-10.791 0-5.949 4.753-10.79 10.595-10.79s10.595 4.841 10.595 10.79c0 5.95-4.753 10.79-10.595 10.791zM13.088 9.801c0.172 0 0.312-0.142 0.312-0.316v-1.27c0-0.174-0.14-0.316-0.312-0.316s-0.312 0.142-0.312 0.316v1.27c0 0.174 0.14 0.316 0.312 0.316zM6.918 12.404c0.080-0 0.159-0.031 0.22-0.093 0.122-0.123 0.122-0.325 0-0.448l-0.882-0.898c-0.122-0.124-0.319-0.124-0.44 0s-0.122 0.325 0 0.449l0.881 0.896c0.061 0.063 0.141 0.093 0.221 0.093zM19.257 12.404c0.080 0 0.159-0.031 0.22-0.093l0.882-0.896c0.122-0.124 0.122-0.325 0-0.449s-0.319-0.124-0.441 0l-0.881 0.898c-0.122 0.123-0.122 0.325 0 0.448 0.061 0.063 0.141 0.093 0.22 0.093zM12.871 20.501c0.474 0 0.948-0.183 1.308-0.549 1.604-1.628 3.195-4.399 4-5.906 0.133-0.25 0.090-0.551-0.107-0.751s-0.494-0.244-0.738-0.109c-1.479 0.82-4.2 2.44-5.799 4.074-0.722 0.738-0.718 1.941 0.010 2.683 0.366 0.372 0.846 0.559 1.326 0.559zM13.739 19.502c-0.482 0.489-1.268 0.485-1.753-0.010-0.485-0.494-0.489-1.295-0.009-1.786 1.543-1.577 4.205-3.159 5.654-3.964-0.79 1.478-2.344 4.188-3.892 5.759zM13.087 19.323c0.25 0 0.485-0.099 0.661-0.279s0.274-0.418 0.274-0.674c-0-0.238-0.086-0.463-0.242-0.639l-0.032-0.034c-0.353-0.36-0.969-0.36-1.322 0-0.177 0.18-0.274 0.42-0.274 0.673 0 0.255 0.097 0.494 0.274 0.674s0.411 0.279 0.661 0.279zM4.363 18.688c0.172 0 0.312-0.142 0.312-0.318 0-0.174-0.139-0.316-0.312-0.316h-1.246c-0.172 0-0.312 0.142-0.312 0.316 0 0.176 0.14 0.318 0.312 0.318h1.246zM13.307 18.595c-0.118 0.12-0.323 0.12-0.44 0-0.059-0.060-0.091-0.14-0.091-0.225s0.033-0.164 0.092-0.224c0.059-0.060 0.137-0.092 0.22-0.092 0.073 0 0.142 0.024 0.197 0.071l0.023 0.021c0.059 0.060 0.091 0.139 0.091 0.224s-0.033 0.165-0.091 0.225zM23.059 18.688c0.172 0 0.312-0.142 0.312-0.318 0-0.174-0.14-0.316-0.312-0.316h-1.246c-0.172 0-0.312 0.142-0.312 0.316 0 0.176 0.14 0.318 0.312 0.318h1.246zM6.037 25.869c0.080 0 0.159-0.031 0.22-0.093l0.882-0.898c0.122-0.124 0.122-0.325 0-0.449s-0.319-0.124-0.441 0l-0.881 0.898c-0.122 0.124-0.122 0.325 0 0.449 0.061 0.062 0.14 0.093 0.22 0.093zM20.138 25.869c0.080 0 0.159-0.031 0.22-0.093 0.122-0.124 0.122-0.325 0-0.449l-0.882-0.898c-0.122-0.124-0.319-0.124-0.44 0s-0.122 0.325 0 0.449l0.881 0.898c0.061 0.062 0.141 0.093 0.221 0.093z"></path>
</symbol>
<symbol id="icon-icon_approach" viewBox="0 0 31 32">
<path d="M6.528 31.736c0.857 0 1.555-0.713 1.555-1.587v-5.078c-0-0.875-0.698-1.586-1.555-1.586h-2.156c0.035-0.423 0.136-0.835 0.43-0.985 0.715-0.365 1.971-0.163 3.184 0.034 1.336 0.217 2.721 0.441 3.657-0.035 0.228-0.117 0.501-0.357 0.659-0.846 0.871 0.511 1.868 0.823 2.931 0.874v0.959h-2.175c-0.858 0-1.555 0.711-1.555 1.587v5.077c0 0.874 0.697 1.587 1.555 1.587h4.971c0.858 0 1.555-0.713 1.555-1.587v-5.077c0-0.876-0.697-1.587-1.555-1.587h-2.176v-0.959c1.062-0.051 2.059-0.362 2.929-0.873 0.158 0.489 0.435 0.728 0.663 0.846 0.932 0.476 2.317 0.251 3.657 0.034 1.209-0.196 2.463-0.399 3.181-0.034 0.296 0.15 0.397 0.563 0.432 0.986h-2.157c-0.858 0-1.556 0.711-1.556 1.587v5.077c0 0.874 0.698 1.587 1.556 1.587h4.974c0.855 0 1.553-0.713 1.553-1.587v-5.077c0-0.876-0.698-1.587-1.553-1.587h-2.196c-0.044-0.598-0.202-1.261-0.775-1.554-0.895-0.456-2.189-0.247-3.56-0.024-1.24 0.201-2.525 0.408-3.278 0.025-0.193-0.099-0.324-0.314-0.394-0.638 1.658-1.21 2.74-3.191 2.74-5.426s-1.082-4.215-2.74-5.425c0.069-0.325 0.201-0.54 0.394-0.637 0.754-0.385 2.038-0.177 3.278 0.024 1.371 0.223 2.664 0.432 3.56-0.024 0.573-0.293 0.731-0.957 0.775-1.554h2.196c0.855 0 1.553-0.711 1.553-1.587v-5.077c0-0.874-0.698-1.587-1.553-1.587h-4.974c-0.858 0-1.556 0.713-1.556 1.587v5.077c0 0.876 0.698 1.587 1.556 1.587h2.157c-0.035 0.423-0.136 0.835-0.432 0.985-0.717 0.365-1.969 0.163-3.181-0.033-1.34-0.217-2.725-0.442-3.66 0.035-0.227 0.117-0.502 0.357-0.661 0.846-0.871-0.51-1.867-0.821-2.929-0.872v-0.96h2.176c0.858 0 1.555-0.711 1.555-1.587v-5.077c0-0.874-0.697-1.587-1.555-1.587h-4.971c-0.858 0-1.555 0.712-1.555 1.587v5.077c0 0.876 0.697 1.587 1.555 1.587h2.175v0.96c-1.063 0.051-2.060 0.363-2.931 0.873-0.158-0.49-0.432-0.73-0.662-0.848-0.933-0.475-2.318-0.251-3.654-0.033-1.213 0.197-2.468 0.398-3.184 0.033-0.295-0.15-0.396-0.563-0.43-0.986h2.156c0.857 0 1.555-0.711 1.555-1.587v-5.077c0-0.874-0.698-1.587-1.555-1.587h-4.973c-0.857 0-1.555 0.713-1.555 1.587v5.077c0 0.875 0.698 1.587 1.555 1.587h2.195c0.044 0.598 0.202 1.262 0.776 1.555 0.893 0.456 2.186 0.246 3.558 0.024 1.242-0.201 2.525-0.408 3.28-0.025 0.192 0.099 0.323 0.314 0.393 0.639-1.658 1.21-2.74 3.191-2.74 5.425s1.082 4.216 2.74 5.426c-0.070 0.325-0.201 0.539-0.393 0.637-0.756 0.385-2.041 0.177-3.28-0.024-1.371-0.223-2.665-0.432-3.558 0.024-0.573 0.293-0.731 0.957-0.776 1.554h-2.195c-0.857 0-1.555 0.711-1.555 1.586v5.078c0 0.874 0.698 1.587 1.555 1.587h4.973zM13.059 7.617c-0.517-0-0.935-0.427-0.935-0.952v-5.077c0-0.524 0.418-0.952 0.935-0.952h4.971c0.514 0 0.935 0.428 0.935 0.952v5.077c0 0.526-0.421 0.952-0.935 0.952h-4.971zM24.559 7.617c-0.516-0-0.934-0.427-0.934-0.952v-5.077c0-0.524 0.418-0.952 0.934-0.952h4.974c0.513 0 0.931 0.428 0.931 0.952v5.077c0 0.526-0.418 0.952-0.931 0.952h-4.974zM1.555 7.617c-0.514-0-0.932-0.426-0.932-0.952v-5.077c0-0.524 0.418-0.952 0.932-0.952h4.973c0.514 0 0.932 0.428 0.932 0.952v5.077c0 0.526-0.418 0.952-0.932 0.952h-4.973zM15.544 21.898c-3.257-0-5.906-2.704-5.906-6.029 0-3.324 2.649-6.029 5.906-6.029 3.254 0 5.906 2.705 5.906 6.029-0 3.325-2.652 6.029-5.906 6.029zM17.408 19.676c0.515 0 0.932-0.427 0.932-0.952v-2.539c0-0.524-0.417-0.952-0.932-0.952h-0.001v-0.952c0-1.050-0.835-1.903-1.863-1.903s-1.866 0.853-1.866 1.903v0.952h-0.002c-0.515 0-0.932 0.428-0.932 0.952v2.539c0 0.526 0.417 0.952 0.932 0.952h3.731zM14.299 14.281c0-0.7 0.56-1.269 1.246-1.269s1.243 0.569 1.243 1.269v0.952h-2.489v-0.952zM13.677 19.042c-0.172 0-0.311-0.142-0.311-0.318v-2.539c0-0.174 0.139-0.318 0.311-0.318h3.731c0.172 0 0.311 0.144 0.311 0.318v2.539c-0 0.176-0.139 0.318-0.311 0.318h-3.731zM15.724 18.724c0.24 0 0.433-0.198 0.433-0.44v-0.172c0.213-0.198 0.327-0.491 0.3-0.788-0.044-0.436-0.381-0.789-0.809-0.837-0.259-0.029-0.523 0.054-0.717 0.231-0.194 0.178-0.305 0.432-0.305 0.698s0.112 0.519 0.302 0.696v0.172c0 0.243 0.194 0.44 0.433 0.44h0.362zM15.544 17.938c-0.022-0.11-0.082-0.211-0.172-0.276-0.079-0.057-0.126-0.148-0.126-0.245 0-0.087 0.035-0.167 0.101-0.225 0.055-0.050 0.123-0.076 0.196-0.076 0.011 0 0.022 0 0.035 0.002 0.133 0.015 0.245 0.131 0.259 0.269 0.011 0.109-0.036 0.212-0.123 0.276h-0.003c-0.090 0.067-0.15 0.166-0.169 0.276zM1.555 31.102c-0.514 0-0.932-0.428-0.932-0.952v-5.078c0-0.525 0.418-0.952 0.932-0.952h4.973c0.514 0 0.932 0.427 0.932 0.952v5.078c0 0.524-0.418 0.952-0.932 0.952h-4.973zM13.059 31.102c-0.517 0-0.935-0.428-0.935-0.952v-5.077c0-0.526 0.418-0.952 0.935-0.952h4.971c0.514 0 0.935 0.427 0.935 0.952v5.077c0 0.524-0.421 0.952-0.935 0.952h-4.971zM24.559 31.102c-0.516 0-0.934-0.428-0.934-0.952v-5.077c0-0.525 0.418-0.952 0.934-0.952h4.974c0.513 0 0.931 0.427 0.931 0.952v5.077c0 0.524-0.418 0.952-0.931 0.952h-4.974z"></path>
</symbol>
<symbol id="icon-icon_creativity" viewBox="0 0 24 32">
<path d="M11.978 2.329c0.157-0 0.286-0.13 0.286-0.291v-1.747c0-0.161-0.129-0.291-0.286-0.291s-0.286 0.13-0.286 0.291v1.747c0 0.161 0.129 0.291 0.286 0.291zM11.979 31.735c2.582 0 4.699-2.073 4.84-4.674 1.285-0.142 2.29-1.256 2.29-2.604 0-0.482-0.386-0.873-0.857-0.873h-1.127c0.032-0.507 0.146-1.643 0.55-3.143 0.32-1.184 0.847-2.387 1.618-3.676 0.814-1.363 1.243-2.932 1.243-4.535 0-4.816-3.838-8.735-8.557-8.735-4.566 0-8.404 3.79-8.551 8.448-0.052 1.714 0.379 3.387 1.249 4.84 0.724 1.21 1.224 2.314 1.528 3.376 0.47 1.641 0.596 2.887 0.63 3.426h-1.129c-0.471 0-0.857 0.391-0.857 0.873 0 1.348 1.002 2.462 2.288 2.604 0.14 2.601 2.259 4.674 4.843 4.674zM4.921 5.313c0.072-0 0.146-0.029 0.2-0.085 0.112-0.114 0.112-0.298 0-0.412l-1.209-1.235c-0.11-0.114-0.292-0.114-0.402 0-0.112 0.114-0.112 0.298 0 0.412l1.209 1.235c0.056 0.057 0.128 0.085 0.202 0.085zM19.038 5.313c0.071-0 0.144-0.028 0.199-0.085l1.212-1.235c0.111-0.114 0.111-0.298 0-0.412-0.113-0.114-0.293-0.114-0.404 0l-1.21 1.235c-0.111 0.114-0.111 0.298 0 0.412 0.056 0.057 0.128 0.085 0.203 0.085zM7.405 23.583c-0.031-0.553-0.155-1.848-0.653-3.59-0.318-1.111-0.837-2.262-1.588-3.516-0.814-1.354-1.216-2.916-1.165-4.517 0.136-4.347 3.717-7.884 7.979-7.884 4.403 0 7.988 3.657 7.988 8.152-0 1.497-0.402 2.961-1.161 4.232-0.797 1.337-1.346 2.588-1.681 3.824-0.429 1.595-0.542 2.778-0.571 3.299h-2.863v-5.004c0.533-0.073 1.079-0.233 1.585-0.577 0.585-0.399 0.917-1.012 0.845-1.562-0.035-0.267-0.2-0.752-0.913-0.995-0.506-0.173-1.056-0.093-1.471 0.213-0.39 0.288-0.616 0.735-0.616 1.228v1.161c-0.277 0.013-0.55 0.009-0.812 0.006-0.225-0.003-0.434-0.003-0.659 0-0.262 0.003-0.535 0.007-0.81-0.006v-1.161c0-0.492-0.225-0.94-0.618-1.228-0.413-0.306-0.963-0.385-1.471-0.213-0.713 0.243-0.878 0.728-0.913 0.995-0.072 0.55 0.26 1.163 0.847 1.562 0.506 0.344 1.050 0.504 1.583 0.577v5.004h-2.861zM5.964 12.545c0.155-0 0.281-0.125 0.283-0.282 0.098-3.038 2.285-5.379 5.203-5.567 0.157-0.010 0.277-0.149 0.267-0.309s-0.149-0.284-0.304-0.272c-3.217 0.208-5.63 2.785-5.735 6.129-0.006 0.161 0.118 0.296 0.277 0.301h0.008zM1.996 12.518c0.156 0 0.285-0.13 0.285-0.291s-0.129-0.291-0.285-0.291h-1.711c-0.156 0-0.285 0.131-0.285 0.291s0.129 0.291 0.285 0.291h1.711zM23.67 12.518c0.159 0 0.285-0.13 0.285-0.291s-0.127-0.291-0.285-0.291h-1.71c-0.159 0-0.285 0.13-0.285 0.291s0.127 0.291 0.285 0.291h1.71zM10.266 17.991c-0.436-0.068-0.87-0.204-1.267-0.474-0.401-0.272-0.64-0.674-0.597-0.999 0.037-0.295 0.308-0.446 0.529-0.521 0.12-0.041 0.242-0.061 0.362-0.061 0.215 0 0.421 0.065 0.595 0.193 0.242 0.178 0.378 0.453 0.378 0.756v1.106zM13.69 16.885c0-0.303 0.139-0.578 0.378-0.756 0.174-0.128 0.38-0.193 0.595-0.193 0.12 0 0.242 0.020 0.362 0.061 0.221 0.074 0.492 0.225 0.529 0.521 0.043 0.325-0.196 0.727-0.595 0.999-0.399 0.27-0.831 0.407-1.269 0.474v-1.106zM10.839 18.628c0.283 0.013 0.56 0.010 0.816 0.007 0.221-0.003 0.425-0.003 0.646 0 0.256 0.004 0.533 0.006 0.818-0.007v4.955h-2.281v-4.955zM16.541 26.494h-9.127c-0.001 0-0.002 0-0.004 0-1.098-0.002-1.992-0.916-1.992-2.038 0-0.161 0.127-0.291 0.285-0.291h1.419c0.002 0 0.004 0 0.006 0h9.698c0.002 0 0.004-0 0.006-0h1.419c0.158 0 0.285 0.13 0.285 0.291 0 1.122-0.892 2.036-1.993 2.038-0.001-0-0.002-0-0.004-0zM11.979 31.153c-2.264 0-4.121-1.804-4.27-4.077h8.538c-0.149 2.273-2.006 4.077-4.268 4.077z"></path>
</symbol>
<symbol id="icon-arrow-right" viewBox="0 0 32 32">
<path d="M19.414 27.414l10-10c0.781-0.781 0.781-2.047 0-2.828l-10-10c-0.781-0.781-2.047-0.781-2.828 0s-0.781 2.047 0 2.828l6.586 6.586h-19.172c-1.105 0-2 0.895-2 2s0.895 2 2 2h19.172l-6.586 6.586c-0.39 0.39-0.586 0.902-0.586 1.414s0.195 1.024 0.586 1.414c0.781 0.781 2.047 0.781 2.828 0z"></path>
</symbol>
<symbol id="icon-1" viewBox="0 0 15 32">
<path d="M13.557 1.208h1.208v-1.208h-1.208v1.208zM13.557 30.476v1.208h1.208v-1.208h-1.208zM8.244 30.476h-1.208v1.208h1.208v-1.208zM8.244 7.402h1.208v-1.671l-1.586 0.524 0.379 1.147zM1.208 9.728h-1.208v1.671l1.586-0.524-0.379-1.147zM1.208 5.438l-0.409-1.136-0.798 0.287v0.849h1.208zM12.955 1.208v-1.208h-0.211l-0.198 0.071 0.409 1.136zM13.557 1.208h-1.208v29.269h2.415v-29.269h-1.208zM13.557 30.476v-1.208h-5.312v2.415h5.312v-1.208zM8.244 30.476h1.208v-23.074h-2.415v23.074h1.208zM8.244 7.402l-0.379-1.147-7.037 2.325 0.758 2.293 7.037-2.325-0.379-1.146zM1.208 9.728h1.208v-4.29h-2.415v4.29h1.208zM1.208 5.438l0.409 1.136 11.748-4.23-0.818-2.272-11.748 4.23 0.409 1.136zM12.955 1.208v1.208h0.601v-2.415h-0.601v1.208z"></path>
</symbol>
</defs>
</svg>
