<svg aria-hidden="true" style="position: absolute; width: 0; height: 0; overflow: hidden;" version="1.1" xmlns="http://www.w3.org/2000/svg" xmlns:xlink="http://www.w3.org/1999/xlink">
<defs>
<symbol id="logo" viewBox="0 0 68 32">
<path d="M16.822 0.045c-3.366 0.161-5.462 0.594-7.633 1.574-2.426 1.097-4.777 3.214-6.322 5.684-0.45 0.724-1.105 2.042-1.44 2.892-0.905 2.309-1.355 4.653-1.421 7.318-0.090 4.004 0.815 7.882 2.736 11.714 0.7 1.393 1.511 2.746 1.621 2.706 0.13-0.050 5.832-3.873 5.832-3.908 0-0.025-0.1-0.216-0.23-0.427-0.3-0.513-0.91-1.745-1.185-2.394-0.79-1.866-1.335-4.21-1.335-5.759v-0.322h8.003v8.903h7.303v-20.823h-7.303v5.633h-7.303l0.050-0.121c0.42-1.117 1.2-2.636 1.701-3.325 0.42-0.573 1.26-1.257 2.181-1.776 1.145-0.639 2.246-0.981 3.881-1.197 0.505-0.070 1.27-0.085 4.306-0.106 2.026-0.015 3.686-0.040 3.686-0.055 0.005-0.020-0.375-1.434-0.835-3.144l-0.84-3.103-2.576 0.010c-1.415 0.005-2.711 0.015-2.876 0.025z"></path>
<path d="M25.39 2.52l-0.63 2.52h4.622c5.042 0 4.967-0.005 5.667 0.292 1.781 0.755 2.901 2.937 2.791 5.442-0.11 2.515-1.365 4.683-3.341 5.774-0.805 0.438-1.841 0.729-2.836 0.795l-0.51 0.035v-11.634h-5.402v16.659l3.216-0.025c3.436-0.025 3.646-0.035 5.047-0.312 2.931-0.578 5.447-1.992 7.197-4.034 3.301-3.853 3.586-9.396 0.725-13.938-0.6-0.951-1.466-1.997-2.231-2.696-0.61-0.558-1.641-0.981-3.006-1.247-0.56-0.106-0.68-0.106-5.627-0.126l-5.057-0.020-0.625 2.515z"></path>
<path d="M44.442 3.108c-0.46 1.715-0.84 3.129-0.835 3.149 0 0.015 1.661 0.040 3.691 0.055 3.031 0.020 3.796 0.035 4.301 0.106 1.636 0.216 2.736 0.558 3.881 1.197 0.92 0.518 1.761 1.202 2.181 1.776 0.5 0.689 1.28 2.208 1.701 3.325l0.050 0.121h-7.302v-5.633h-7.303v20.823h7.303v-8.903h8.003v0.322c0 1.549-0.545 3.893-1.336 5.759-0.275 0.649-0.885 1.881-1.185 2.394-0.13 0.211-0.23 0.402-0.23 0.427 0 0.035 5.702 3.858 5.832 3.908 0.11 0.040 0.92-1.313 1.621-2.706 1.921-3.833 2.826-7.711 2.736-11.714-0.075-3.284-0.77-6.182-2.116-8.852-1.080-2.148-2.44-3.838-4.276-5.311-2.116-1.7-4.657-2.711-7.748-3.083-1.551-0.191-2.126-0.216-5.127-0.241l-3.001-0.025-0.84 3.108z"></path>
<path d="M27.801 24.616c-0.345 0.724-0.63 1.544-0.875 2.53-0.095 0.387-0.175 0.719-0.175 0.739 0 0.025 0.245 0.040 0.545 0.040h0.54l0.060-0.317c0.125-0.649 0.575-2.072 0.725-2.273 0.055-0.075 0.085-0.025 0.245 0.382 0.1 0.262 0.195 0.533 0.215 0.609l0.030 0.141h-0.69l-0.085 0.362c-0.050 0.201-0.085 0.382-0.085 0.402 0 0.025 0.245 0.040 0.545 0.040h0.545l0.12 0.654h0.545c0.3 0 0.545-0.015 0.545-0.040 0-0.091-0.265-1.187-0.38-1.594-0.185-0.619-0.53-1.479-0.78-1.921l-0.21-0.367h-1.085l-0.295 0.614z"></path>
<path d="M32.102 25.961v1.967h1.1v-3.083l0.32 0.025c0.62 0.050 0.97 0.397 1.015 1.016 0.035 0.397-0.080 0.815-0.27 0.996-0.17 0.166-0.46 0.292-0.665 0.292h-0.15v0.855h0.19c0.1 0 0.33-0.035 0.505-0.075 0.98-0.231 1.506-0.925 1.506-1.977 0-0.755-0.21-1.212-0.72-1.554-0.445-0.302-0.79-0.377-1.866-0.407l-0.965-0.020v1.967z"></path>
<path d="M37.129 24.213c0.115 0.679 0.57 1.977 1.075 3.048l0.315 0.669 0.86-0.030 0.285-0.568c0.33-0.674 0.635-1.444 0.845-2.148 0.13-0.433 0.295-1.091 0.295-1.162 0-0.010-0.255-0.020-0.565-0.020h-0.565l-0.090 0.438c-0.105 0.518-0.4 1.464-0.54 1.745l-0.1 0.201-0.12-0.302c-0.19-0.463-0.4-1.157-0.5-1.645l-0.090-0.438h-1.14l0.035 0.211z"></path>
<path d="M8.869 29.882c-0.41 0.277-1.3 0.865-1.971 1.308l-1.22 0.81h56.209l-3.901-2.616h-48.367l-0.75 0.498zM26.24 29.762c0.315 0.186 0.445 0.704 0.29 1.147-0.18 0.508-0.605 0.785-1.26 0.83l-0.42 0.025v-1.574h0.6v0.528c0 0.292 0.010 0.528 0.025 0.528 0.105 0 0.335-0.176 0.425-0.322 0.080-0.131 0.1-0.241 0.090-0.417-0.020-0.317-0.12-0.367-0.75-0.367-0.27 0-0.49-0.010-0.49-0.020 0-0.005 0.025-0.091 0.055-0.186s0.065-0.201 0.075-0.241c0.035-0.111 1.145-0.055 1.36 0.070zM29.846 29.857c0.030 0.126 0.055 0.236 0.055 0.252s-0.18 0.030-0.4 0.030c-0.395 0-0.4 0-0.4 0.126 0 0.121 0.010 0.126 0.34 0.126 0.19 0 0.355 0.010 0.37 0.025s0 0.126-0.035 0.241l-0.060 0.211-0.615 0.030v0.347h0.425c0.235 0 0.425 0.015 0.425 0.030s-0.025 0.126-0.055 0.251l-0.055 0.221h-1.34v-1.021c0-0.563 0.015-1.041 0.035-1.056 0.015-0.020 0.305-0.035 0.64-0.035h0.615l0.055 0.221zM32.947 29.857c0.030 0.126 0.055 0.236 0.055 0.252s-0.135 0.030-0.295 0.030c-0.165 0-0.31 0.020-0.325 0.045s0.105 0.191 0.27 0.372c0.46 0.508 0.535 0.795 0.265 1.051-0.105 0.101-0.185 0.116-0.585 0.131l-0.465 0.020-0.030-0.146c-0.020-0.075-0.045-0.191-0.065-0.252-0.030-0.111-0.020-0.116 0.3-0.116 0.215 0 0.33-0.020 0.33-0.055s-0.105-0.181-0.235-0.332c-0.34-0.387-0.415-0.518-0.415-0.719 0-0.362 0.21-0.488 0.805-0.498l0.335-0.005 0.055 0.221zM35.553 30.692v1.056h-0.6v-1.021c0-0.563 0.015-1.041 0.035-1.056 0.015-0.020 0.15-0.035 0.3-0.035h0.265v1.056zM39.119 29.872l0.070 0.241-0.495 0.025c-0.42 0.020-0.51 0.040-0.57 0.121-0.195 0.272 0.055 0.845 0.42 0.961 0.105 0.030 0.11 0.015 0.11-0.196 0-0.196-0.015-0.231-0.1-0.231s-0.1-0.035-0.1-0.252v-0.252h0.75v1.459h-0.29c-0.95 0-1.611-0.714-1.41-1.519 0.11-0.428 0.41-0.588 1.11-0.594h0.435l0.070 0.236zM42.011 29.968l0.27 0.332 0.015-0.337 0.015-0.332 0.57 0.030v2.062l-0.575 0.030v-0.317c0-0.307-0.010-0.327-0.26-0.644l-0.265-0.327-0.015 0.639-0.015 0.644h-0.545v-2.113h0.53l0.275 0.332zM24.449 30.089c0 0.101-0.035 0.101-7.413 0.101-7.372 0-7.418-0.005-7.293-0.101s0.255-0.101 7.418-0.101c7.253 0 7.288 0 7.288 0.101zM58.011 30.089c0.125 0.096 0.080 0.101-7.288 0.101-7.383 0-7.418 0-7.418-0.101s0.035-0.101 7.293-0.101c7.157 0 7.287 0.005 7.413 0.101zM24.449 30.692c0 0.101-0.035 0.101-7.863 0.101-7.828-0.005-7.868-0.005-7.748-0.101 0.115-0.101 0.235-0.101 7.863-0.101 7.713 0 7.748 0 7.748 0.101zM58.911 30.692c0.125 0.096 0.075 0.101-7.738 0.101-7.833 0-7.868 0-7.868-0.101s0.035-0.101 7.743-0.101c7.603 0 7.738 0.005 7.863 0.101zM24.449 31.296c0 0.101-0.035 0.101-8.303 0.101-4.567 0-8.303-0.020-8.303-0.040 0-0.146 0.365-0.156 8.418-0.156 8.158-0.005 8.188-0.005 8.188 0.096zM59.817 31.296c0.12 0.096 0.080 0.096-8.193 0.101-8.283 0-8.318 0-8.318-0.101s0.035-0.101 8.198-0.101c8.078 0 8.198 0 8.313 0.101z"></path>
</symbol>
<symbol id="menu" viewBox="0 0 32 32">
<path d="M28 24h-24v-2.667h24v2.667zM28 17.333h-24v-2.667h24v2.667zM28 10.667h-24v-2.667h24v2.667z"></path>
</symbol>
<symbol id="telegram" viewBox="0 0 32 32">
<path d="M27.633 5.737c0.335-0.132 0.716-0.074 0.996 0.152s0.417 0.586 0.358 0.941l-3.333 20c-0.056 0.337-0.281 0.623-0.595 0.756s-0.675 0.098-0.957-0.095l-7.647-5.233-3.745 3.779c-0.285 0.287-0.716 0.374-1.090 0.22s-0.62-0.519-0.62-0.925v-6.467l-8.475-1.21c-0.448-0.064-0.798-0.422-0.852-0.872s0.205-0.88 0.626-1.047l25.333-10zM13.75 17.985l10.187 6.969 2.68-16.083-12.867 9.115zM13 22.903l1.777-1.792-1.777-1.216v3.008zM6.543 16.209l5.203 0.743 8.917-6.316-14.12 5.573z"></path>
</symbol>
<symbol id="viber" viewBox="0 0 32 32">
<path d="M10.62 8.269c-0.248-0.036-0.501 0.014-0.716 0.141h-0.019c-0.5 0.293-0.951 0.663-1.335 1.097-0.32 0.369-0.493 0.743-0.539 1.103-0.027 0.213-0.008 0.429 0.055 0.633l0.024 0.013c0.36 1.057 0.829 2.075 1.403 3.032 0.74 1.344 1.649 2.588 2.707 3.7l0.032 0.045 0.051 0.037 0.031 0.036 0.037 0.032c1.116 1.060 2.362 1.974 3.709 2.72 1.54 0.839 2.475 1.235 3.036 1.4v0.008c0.164 0.051 0.313 0.073 0.464 0.073 0.478-0.034 0.931-0.229 1.285-0.552 0.433-0.384 0.8-0.836 1.085-1.339v-0.009c0.268-0.507 0.177-0.984-0.209-1.308-0.776-0.679-1.616-1.282-2.508-1.8-0.597-0.324-1.204-0.128-1.449 0.2l-0.524 0.661c-0.269 0.328-0.757 0.283-0.757 0.283l-0.013 0.008c-3.641-0.929-4.613-4.616-4.613-4.616s-0.045-0.501 0.292-0.757l0.656-0.528c0.315-0.256 0.533-0.861 0.196-1.459-0.517-0.891-1.118-1.731-1.796-2.507-0.148-0.182-0.356-0.306-0.587-0.351zM16.774 6.667c-0.177 0-0.346 0.070-0.471 0.195s-0.195 0.295-0.195 0.471c0 0.177 0.070 0.346 0.195 0.471s0.295 0.195 0.471 0.195c1.685 0 3.085 0.551 4.193 1.607 0.569 0.577 1.013 1.261 1.304 2.011 0.292 0.751 0.425 1.552 0.391 2.355-0.007 0.177 0.056 0.349 0.175 0.48s0.286 0.208 0.463 0.215 0.349-0.056 0.48-0.175c0.13-0.12 0.208-0.286 0.215-0.463 0.040-0.987-0.124-1.972-0.481-2.893-0.359-0.926-0.905-1.768-1.605-2.472l-0.013-0.013c-1.375-1.313-3.113-1.983-5.121-1.983z"></path>
<path d="M16.702 11.092c-0.089-0.008-0.179 0.002-0.264 0.030s-0.164 0.072-0.232 0.131c-0.068 0.059-0.123 0.131-0.162 0.211s-0.062 0.168-0.067 0.258 0.009 0.179 0.039 0.263c0.031 0.084 0.078 0.161 0.139 0.227s0.135 0.118 0.217 0.154 0.17 0.056 0.26 0.057c0.557 0.029 0.913 0.197 1.137 0.423 0.225 0.227 0.393 0.591 0.424 1.16 0.002 0.089 0.021 0.178 0.058 0.259s0.089 0.155 0.155 0.216c0.065 0.061 0.143 0.108 0.227 0.139s0.173 0.044 0.263 0.039c0.089-0.005 0.177-0.027 0.257-0.067s0.152-0.094 0.211-0.162 0.103-0.146 0.131-0.231c0.028-0.085 0.038-0.175 0.030-0.264-0.043-0.8-0.293-1.507-0.807-2.027-0.516-0.52-1.219-0.773-2.016-0.816z"></path>
<path d="M9.423 3.18c4.243-0.948 8.643-0.948 12.885 0l0.452 0.1c1.24 0.278 2.379 0.894 3.29 1.78s1.559 2.006 1.873 3.238c1.078 4.244 1.078 8.69 0 12.933-0.313 1.232-0.961 2.352-1.873 3.238s-2.050 1.502-3.29 1.779l-0.453 0.1c-2.657 0.593-5.384 0.817-8.103 0.665l-3.537 3.165c-0.133 0.119-0.296 0.201-0.472 0.236s-0.357 0.022-0.526-0.037c-0.169-0.059-0.319-0.163-0.434-0.3s-0.192-0.302-0.221-0.479l-0.585-3.496c-1.122-0.35-2.136-0.981-2.945-1.834s-1.386-1.899-1.675-3.038c-1.078-4.244-1.078-8.69 0-12.933 0.313-1.232 0.961-2.352 1.873-3.238s2.050-1.502 3.29-1.78l0.452-0.1zM21.872 5.131c-3.956-0.884-8.058-0.884-12.013 0l-0.453 0.101c-0.879 0.198-1.686 0.635-2.331 1.262s-1.105 1.422-1.327 2.295c-0.996 3.921-0.996 8.029 0 11.949 0.222 0.873 0.682 1.667 1.328 2.295s1.453 1.065 2.332 1.262l0.12 0.027c0.194 0.043 0.371 0.144 0.508 0.288s0.227 0.326 0.26 0.523l0.392 2.344 2.496-2.233c0.1-0.089 0.216-0.158 0.343-0.201s0.261-0.061 0.394-0.052c2.665 0.188 5.344-0.012 7.952-0.593l0.452-0.101c0.879-0.197 1.686-0.634 2.332-1.262s1.105-1.422 1.328-2.295c0.995-3.92 0.995-8.028 0-11.949-0.222-0.873-0.682-1.667-1.328-2.295s-1.453-1.065-2.332-1.262l-0.452-0.101z"></path>
<path d="M16.727 8.861c-0.177 0-0.346 0.070-0.471 0.195s-0.195 0.295-0.195 0.471c0 0.177 0.070 0.346 0.195 0.471s0.295 0.195 0.471 0.195h0.023c1.216 0.087 2.101 0.492 2.721 1.157 0.636 0.685 0.965 1.537 0.94 2.591-0.004 0.177 0.062 0.348 0.184 0.476s0.29 0.202 0.467 0.206c0.177 0.004 0.348-0.062 0.476-0.184s0.202-0.29 0.206-0.467c0.032-1.383-0.413-2.576-1.296-3.528v-0.003c-0.903-0.968-2.141-1.48-3.632-1.58l-0.023-0.003-0.067 0.001z"></path>
</symbol>
<symbol id="arrow" viewBox="0 0 32 32">
<path d="M26.599 11.333l-10.667 10.667-10.667-10.667 2-2 8.667 8.667 8.667-8.667 2 2z"></path>
</symbol>
<symbol id="close" viewBox="0 0 32 32">
<path d="M25.711 8.552l-7.637 7.635 7.449 7.449-1.885 1.885-7.449-7.449-7.449 7.449-1.885-1.885 7.448-7.449-7.635-7.635 1.887-1.885 7.635 7.635 7.635-7.635 1.887 1.885z"></path>
</symbol>
</defs>
</svg>
