<svg xmlns="http://www.w3.org/2000/svg" style="display: none;">
<symbol id="icon-close" viewBox="0 0 30 32">
<path stroke-linejoin="miter" stroke-linecap="butt" stroke-miterlimit="4" stroke-width="1.6842" d="M27.734 2.076c0.436 0 0.739 0.133 0.977 0.372s0.37 0.54 0.37 0.975c0 0.436-0.132 0.739-0.37 0.977l-11.6 11.599 11.6 11.599c0.238 0.238 0.37 0.541 0.37 0.977s-0.132 0.739-0.37 0.977c-0.238 0.238-0.541 0.37-0.977 0.37s-0.739-0.132-0.977-0.37l-11.599-11.6-11.599 11.6c-0.238 0.238-0.541 0.37-0.977 0.37s-0.737-0.132-0.975-0.37c-0.238-0.238-0.372-0.541-0.372-0.977s0.133-0.739 0.372-0.977l11.599-11.599-11.599-11.599c-0.238-0.238-0.372-0.541-0.372-0.977s0.133-0.737 0.372-0.975 0.54-0.372 0.975-0.372c0.436 0 0.739 0.133 0.977 0.372l11.599 11.599 11.599-11.599c0.238-0.238 0.541-0.372 0.977-0.372z"></path>
</symbol>
</svg>